<mxfile host="app.diagrams.net" modified="2021-05-25T13:24:48.000Z" agent="5.0 (Windows NT 10.0; Win64; x64) AppleWebKit/537.36 (KHTML, like Gecko) Chrome/90.0.4430.41 YaBrowser/21.5.0.579 Yowser/2.5 Safari/537.36" etag="pKgKvif9zAgkMAdgWSHl" version="14.7.1" type="github">
  <diagram id="dhQph6XMhLJBkTcOBVVm" name="Page-1">
    <mxGraphModel dx="1359" dy="792" grid="1" gridSize="10" guides="1" tooltips="1" connect="1" arrows="1" fold="1" page="1" pageScale="1" pageWidth="827" pageHeight="1169" math="0" shadow="0">
      <root>
        <mxCell id="0" />
        <mxCell id="1" parent="0" />
        <mxCell id="I7o8DJMVMm2Aevz03Bqx-7" style="edgeStyle=orthogonalEdgeStyle;rounded=0;orthogonalLoop=1;jettySize=auto;html=1;exitX=0.5;exitY=0;exitDx=0;exitDy=0;entryX=0.5;entryY=1;entryDx=0;entryDy=0;" edge="1" parent="1" source="I7o8DJMVMm2Aevz03Bqx-1" target="I7o8DJMVMm2Aevz03Bqx-2">
          <mxGeometry relative="1" as="geometry" />
        </mxCell>
        <mxCell id="I7o8DJMVMm2Aevz03Bqx-17" style="edgeStyle=orthogonalEdgeStyle;rounded=0;orthogonalLoop=1;jettySize=auto;html=1;exitX=0.25;exitY=1;exitDx=0;exitDy=0;entryX=0.5;entryY=0;entryDx=0;entryDy=0;" edge="1" parent="1" source="I7o8DJMVMm2Aevz03Bqx-1" target="I7o8DJMVMm2Aevz03Bqx-8">
          <mxGeometry relative="1" as="geometry" />
        </mxCell>
        <mxCell id="I7o8DJMVMm2Aevz03Bqx-19" style="edgeStyle=orthogonalEdgeStyle;rounded=0;orthogonalLoop=1;jettySize=auto;html=1;exitX=0.5;exitY=1;exitDx=0;exitDy=0;entryX=0.5;entryY=0;entryDx=0;entryDy=0;" edge="1" parent="1" source="I7o8DJMVMm2Aevz03Bqx-1" target="I7o8DJMVMm2Aevz03Bqx-9">
          <mxGeometry relative="1" as="geometry" />
        </mxCell>
        <mxCell id="I7o8DJMVMm2Aevz03Bqx-20" style="edgeStyle=orthogonalEdgeStyle;rounded=0;orthogonalLoop=1;jettySize=auto;html=1;exitX=0.75;exitY=1;exitDx=0;exitDy=0;entryX=0.5;entryY=0;entryDx=0;entryDy=0;" edge="1" parent="1" source="I7o8DJMVMm2Aevz03Bqx-1" target="I7o8DJMVMm2Aevz03Bqx-10">
          <mxGeometry relative="1" as="geometry" />
        </mxCell>
        <mxCell id="I7o8DJMVMm2Aevz03Bqx-35" style="edgeStyle=orthogonalEdgeStyle;rounded=0;orthogonalLoop=1;jettySize=auto;html=1;exitX=0;exitY=0.5;exitDx=0;exitDy=0;entryX=1;entryY=0.5;entryDx=0;entryDy=0;" edge="1" parent="1" source="I7o8DJMVMm2Aevz03Bqx-1" target="I7o8DJMVMm2Aevz03Bqx-34">
          <mxGeometry relative="1" as="geometry" />
        </mxCell>
        <mxCell id="I7o8DJMVMm2Aevz03Bqx-38" style="edgeStyle=orthogonalEdgeStyle;rounded=0;orthogonalLoop=1;jettySize=auto;html=1;exitX=0.75;exitY=0;exitDx=0;exitDy=0;entryX=0.25;entryY=1;entryDx=0;entryDy=0;" edge="1" parent="1" source="I7o8DJMVMm2Aevz03Bqx-1" target="I7o8DJMVMm2Aevz03Bqx-37">
          <mxGeometry relative="1" as="geometry" />
        </mxCell>
        <mxCell id="I7o8DJMVMm2Aevz03Bqx-1" value="Главное окно" style="rounded=1;whiteSpace=wrap;html=1;" vertex="1" parent="1">
          <mxGeometry x="294" y="180" width="116" height="40" as="geometry" />
        </mxCell>
        <mxCell id="I7o8DJMVMm2Aevz03Bqx-4" style="edgeStyle=orthogonalEdgeStyle;rounded=0;orthogonalLoop=1;jettySize=auto;html=1;exitX=0;exitY=0.5;exitDx=0;exitDy=0;entryX=1;entryY=0.5;entryDx=0;entryDy=0;" edge="1" parent="1" source="I7o8DJMVMm2Aevz03Bqx-2" target="I7o8DJMVMm2Aevz03Bqx-3">
          <mxGeometry relative="1" as="geometry" />
        </mxCell>
        <mxCell id="I7o8DJMVMm2Aevz03Bqx-6" style="edgeStyle=orthogonalEdgeStyle;rounded=0;orthogonalLoop=1;jettySize=auto;html=1;exitX=0.5;exitY=1;exitDx=0;exitDy=0;entryX=0.5;entryY=0;entryDx=0;entryDy=0;" edge="1" parent="1" source="I7o8DJMVMm2Aevz03Bqx-2" target="I7o8DJMVMm2Aevz03Bqx-1">
          <mxGeometry relative="1" as="geometry" />
        </mxCell>
        <mxCell id="I7o8DJMVMm2Aevz03Bqx-2" value="Авторизация" style="rounded=1;whiteSpace=wrap;html=1;" vertex="1" parent="1">
          <mxGeometry x="294" y="80" width="116" height="40" as="geometry" />
        </mxCell>
        <mxCell id="I7o8DJMVMm2Aevz03Bqx-5" style="edgeStyle=orthogonalEdgeStyle;rounded=0;orthogonalLoop=1;jettySize=auto;html=1;exitX=1;exitY=0.5;exitDx=0;exitDy=0;entryX=0;entryY=0.5;entryDx=0;entryDy=0;" edge="1" parent="1" source="I7o8DJMVMm2Aevz03Bqx-3" target="I7o8DJMVMm2Aevz03Bqx-2">
          <mxGeometry relative="1" as="geometry" />
        </mxCell>
        <mxCell id="I7o8DJMVMm2Aevz03Bqx-3" value="Регистрация" style="rounded=1;whiteSpace=wrap;html=1;" vertex="1" parent="1">
          <mxGeometry x="140" y="80" width="116" height="40" as="geometry" />
        </mxCell>
        <mxCell id="I7o8DJMVMm2Aevz03Bqx-16" style="edgeStyle=orthogonalEdgeStyle;rounded=0;orthogonalLoop=1;jettySize=auto;html=1;exitX=0.5;exitY=0;exitDx=0;exitDy=0;entryX=0.25;entryY=1;entryDx=0;entryDy=0;" edge="1" parent="1" source="I7o8DJMVMm2Aevz03Bqx-8" target="I7o8DJMVMm2Aevz03Bqx-1">
          <mxGeometry relative="1" as="geometry" />
        </mxCell>
        <mxCell id="I7o8DJMVMm2Aevz03Bqx-8" value="Связаться с нами" style="rounded=1;whiteSpace=wrap;html=1;" vertex="1" parent="1">
          <mxGeometry x="150" y="280" width="116" height="40" as="geometry" />
        </mxCell>
        <mxCell id="I7o8DJMVMm2Aevz03Bqx-18" style="edgeStyle=orthogonalEdgeStyle;rounded=0;orthogonalLoop=1;jettySize=auto;html=1;exitX=0.5;exitY=0;exitDx=0;exitDy=0;entryX=0.5;entryY=1;entryDx=0;entryDy=0;" edge="1" parent="1" source="I7o8DJMVMm2Aevz03Bqx-9" target="I7o8DJMVMm2Aevz03Bqx-1">
          <mxGeometry relative="1" as="geometry" />
        </mxCell>
        <mxCell id="I7o8DJMVMm2Aevz03Bqx-9" value="О нас" style="rounded=1;whiteSpace=wrap;html=1;" vertex="1" parent="1">
          <mxGeometry x="294" y="280" width="116" height="40" as="geometry" />
        </mxCell>
        <mxCell id="I7o8DJMVMm2Aevz03Bqx-21" style="edgeStyle=orthogonalEdgeStyle;rounded=0;orthogonalLoop=1;jettySize=auto;html=1;exitX=0.5;exitY=0;exitDx=0;exitDy=0;entryX=0.75;entryY=1;entryDx=0;entryDy=0;" edge="1" parent="1" source="I7o8DJMVMm2Aevz03Bqx-10" target="I7o8DJMVMm2Aevz03Bqx-1">
          <mxGeometry relative="1" as="geometry" />
        </mxCell>
        <mxCell id="I7o8DJMVMm2Aevz03Bqx-23" style="edgeStyle=orthogonalEdgeStyle;rounded=0;orthogonalLoop=1;jettySize=auto;html=1;exitX=0.75;exitY=0;exitDx=0;exitDy=0;entryX=0.5;entryY=1;entryDx=0;entryDy=0;" edge="1" parent="1" source="I7o8DJMVMm2Aevz03Bqx-10" target="I7o8DJMVMm2Aevz03Bqx-22">
          <mxGeometry relative="1" as="geometry" />
        </mxCell>
        <mxCell id="I7o8DJMVMm2Aevz03Bqx-25" style="edgeStyle=orthogonalEdgeStyle;rounded=0;orthogonalLoop=1;jettySize=auto;html=1;exitX=0;exitY=0.5;exitDx=0;exitDy=0;entryX=1;entryY=0.5;entryDx=0;entryDy=0;" edge="1" parent="1" source="I7o8DJMVMm2Aevz03Bqx-10" target="I7o8DJMVMm2Aevz03Bqx-24">
          <mxGeometry relative="1" as="geometry" />
        </mxCell>
        <mxCell id="I7o8DJMVMm2Aevz03Bqx-29" style="edgeStyle=orthogonalEdgeStyle;rounded=0;orthogonalLoop=1;jettySize=auto;html=1;exitX=1;exitY=0;exitDx=0;exitDy=0;entryX=0.5;entryY=1;entryDx=0;entryDy=0;" edge="1" parent="1" source="I7o8DJMVMm2Aevz03Bqx-10" target="I7o8DJMVMm2Aevz03Bqx-28">
          <mxGeometry relative="1" as="geometry" />
        </mxCell>
        <mxCell id="I7o8DJMVMm2Aevz03Bqx-32" style="edgeStyle=orthogonalEdgeStyle;rounded=0;orthogonalLoop=1;jettySize=auto;html=1;exitX=1;exitY=0.5;exitDx=0;exitDy=0;entryX=0;entryY=0.5;entryDx=0;entryDy=0;" edge="1" parent="1" source="I7o8DJMVMm2Aevz03Bqx-10" target="I7o8DJMVMm2Aevz03Bqx-31">
          <mxGeometry relative="1" as="geometry" />
        </mxCell>
        <mxCell id="I7o8DJMVMm2Aevz03Bqx-10" value="Посты" style="rounded=1;whiteSpace=wrap;html=1;" vertex="1" parent="1">
          <mxGeometry x="560" y="280" width="116" height="40" as="geometry" />
        </mxCell>
        <mxCell id="I7o8DJMVMm2Aevz03Bqx-27" style="edgeStyle=orthogonalEdgeStyle;rounded=0;orthogonalLoop=1;jettySize=auto;html=1;exitX=0.5;exitY=1;exitDx=0;exitDy=0;entryX=0.75;entryY=0;entryDx=0;entryDy=0;" edge="1" parent="1" source="I7o8DJMVMm2Aevz03Bqx-22" target="I7o8DJMVMm2Aevz03Bqx-10">
          <mxGeometry relative="1" as="geometry" />
        </mxCell>
        <mxCell id="I7o8DJMVMm2Aevz03Bqx-22" value="Создать пост" style="rounded=1;whiteSpace=wrap;html=1;" vertex="1" parent="1">
          <mxGeometry x="430" y="170" width="116" height="40" as="geometry" />
        </mxCell>
        <mxCell id="I7o8DJMVMm2Aevz03Bqx-26" style="edgeStyle=orthogonalEdgeStyle;rounded=0;orthogonalLoop=1;jettySize=auto;html=1;exitX=1;exitY=0.5;exitDx=0;exitDy=0;entryX=0;entryY=0.5;entryDx=0;entryDy=0;" edge="1" parent="1" source="I7o8DJMVMm2Aevz03Bqx-24" target="I7o8DJMVMm2Aevz03Bqx-10">
          <mxGeometry relative="1" as="geometry" />
        </mxCell>
        <mxCell id="I7o8DJMVMm2Aevz03Bqx-24" value="Удалить пост" style="rounded=1;whiteSpace=wrap;html=1;" vertex="1" parent="1">
          <mxGeometry x="420" y="280" width="116" height="40" as="geometry" />
        </mxCell>
        <mxCell id="I7o8DJMVMm2Aevz03Bqx-30" style="edgeStyle=orthogonalEdgeStyle;rounded=0;orthogonalLoop=1;jettySize=auto;html=1;exitX=0.5;exitY=1;exitDx=0;exitDy=0;entryX=1;entryY=0;entryDx=0;entryDy=0;" edge="1" parent="1" source="I7o8DJMVMm2Aevz03Bqx-28" target="I7o8DJMVMm2Aevz03Bqx-10">
          <mxGeometry relative="1" as="geometry" />
        </mxCell>
        <mxCell id="I7o8DJMVMm2Aevz03Bqx-28" value="Редактировать пост" style="rounded=1;whiteSpace=wrap;html=1;" vertex="1" parent="1">
          <mxGeometry x="600" y="170" width="116" height="40" as="geometry" />
        </mxCell>
        <mxCell id="I7o8DJMVMm2Aevz03Bqx-33" style="edgeStyle=orthogonalEdgeStyle;rounded=0;orthogonalLoop=1;jettySize=auto;html=1;exitX=0;exitY=0.5;exitDx=0;exitDy=0;entryX=1;entryY=0.5;entryDx=0;entryDy=0;" edge="1" parent="1" source="I7o8DJMVMm2Aevz03Bqx-31" target="I7o8DJMVMm2Aevz03Bqx-10">
          <mxGeometry relative="1" as="geometry" />
        </mxCell>
        <mxCell id="I7o8DJMVMm2Aevz03Bqx-31" value="Просмотр поста" style="rounded=1;whiteSpace=wrap;html=1;" vertex="1" parent="1">
          <mxGeometry x="716" y="280" width="116" height="40" as="geometry" />
        </mxCell>
        <mxCell id="I7o8DJMVMm2Aevz03Bqx-36" style="edgeStyle=orthogonalEdgeStyle;rounded=0;orthogonalLoop=1;jettySize=auto;html=1;exitX=1;exitY=0.5;exitDx=0;exitDy=0;entryX=0;entryY=0.5;entryDx=0;entryDy=0;" edge="1" parent="1" source="I7o8DJMVMm2Aevz03Bqx-34" target="I7o8DJMVMm2Aevz03Bqx-1">
          <mxGeometry relative="1" as="geometry" />
        </mxCell>
        <mxCell id="I7o8DJMVMm2Aevz03Bqx-34" value="Личный кабинет" style="rounded=1;whiteSpace=wrap;html=1;" vertex="1" parent="1">
          <mxGeometry x="120" y="160" width="116" height="40" as="geometry" />
        </mxCell>
        <mxCell id="I7o8DJMVMm2Aevz03Bqx-39" style="edgeStyle=orthogonalEdgeStyle;rounded=0;orthogonalLoop=1;jettySize=auto;html=1;exitX=0.25;exitY=1;exitDx=0;exitDy=0;" edge="1" parent="1" source="I7o8DJMVMm2Aevz03Bqx-37">
          <mxGeometry relative="1" as="geometry">
            <mxPoint x="379.9999999999998" y="180" as="targetPoint" />
          </mxGeometry>
        </mxCell>
        <mxCell id="I7o8DJMVMm2Aevz03Bqx-37" value="Выход из аккаунта" style="rounded=1;whiteSpace=wrap;html=1;" vertex="1" parent="1">
          <mxGeometry x="430" y="90" width="116" height="40" as="geometry" />
        </mxCell>
      </root>
    </mxGraphModel>
  </diagram>
</mxfile>
